<svg width="375" height="56" viewBox="0 0 375 56" fill="none" xmlns="http://www.w3.org/2000/svg">
<g clip-path="url(#clip0_2684_323)">
<path d="M170.281 27.5127C170.281 23.3985 168.646 19.4528 165.737 16.5436C162.828 13.6344 158.882 12 154.768 12C150.654 12 146.708 13.6344 143.799 16.5436C140.89 19.4528 139.255 23.3985 139.255 27.5127H144.103C145.71 27.5127 146.962 26.1665 147.551 24.6717C147.937 23.6903 148.523 22.7884 149.284 22.0281C150.738 20.5735 152.711 19.7563 154.768 19.7563C156.825 19.7563 158.798 20.5735 160.253 22.0281C161.707 23.4827 162.524 25.4556 162.524 27.5127H170.281Z" fill="url(#paint0_linear_2684_323)"/>
<path d="M161.345 33.4501C162.124 31.568 162.525 29.5508 162.525 27.5137H170.281C170.281 36.0811 163.336 43.0263 154.768 43.0263C153.427 43.0263 152.125 42.856 150.883 42.5358C151.585 42.3548 152.276 42.1243 152.949 41.8455C154.831 41.0659 156.541 39.9233 157.982 38.4828C159.422 37.0423 160.565 35.3322 161.345 33.4501Z" fill="#4392F9"/>
<path d="M131.5 27.5117C131.5 29.5489 131.901 31.5661 132.681 33.4482C133.46 35.3303 134.603 37.0404 136.044 38.4809C137.484 39.9213 139.194 41.064 141.076 41.8436C142.958 42.6232 144.976 43.0244 147.013 43.0244C149.05 43.0244 151.067 42.6232 152.949 41.8436C154.831 41.064 156.541 39.9213 157.982 38.4809C159.422 37.0404 160.565 35.3303 161.344 33.4482C162.124 31.5661 162.525 29.5489 162.525 27.5117H157.678C156.071 27.5117 154.818 28.8579 154.23 30.3526C154.213 30.3952 154.196 30.4376 154.179 30.48C153.789 31.421 153.218 32.2761 152.497 32.9963C151.777 33.7165 150.922 34.2879 149.981 34.6777C149.04 35.0675 148.031 35.2681 147.013 35.2681C145.994 35.2681 144.986 35.0675 144.045 34.6777C143.103 34.2879 142.248 33.7165 141.528 32.9963C140.808 32.2761 140.237 31.421 139.847 30.48C139.457 29.5389 139.256 28.5303 139.256 27.5117H131.5Z" fill="url(#paint1_linear_2684_323)"/>
<path d="M131.502 27.5127C131.502 18.9452 138.447 12 147.014 12C148.356 12 149.657 12.1702 150.899 12.4903C148.235 13.1766 145.777 14.5654 143.799 16.5436C140.89 19.4527 139.256 23.3985 139.256 27.5127H131.502Z" fill="#F83758"/>
<path d="M185.471 33.6752C184.919 33.6752 184.382 33.6032 183.86 33.4592C183.338 33.3152 182.777 33.0902 182.177 32.7842L181.556 33.5132H180.998L180.647 28.9502L181.394 28.8332C181.778 30.1712 182.285 31.1402 182.915 31.7402C183.551 32.3402 184.394 32.6402 185.444 32.6402C186.194 32.6402 186.791 32.4602 187.235 32.1002C187.685 31.7402 187.91 31.2452 187.91 30.6152C187.91 30.2372 187.751 29.8862 187.433 29.5622C187.121 29.2322 186.581 28.8812 185.813 28.5092L184.364 27.7892C183.188 27.2072 182.324 26.5622 181.772 25.8542C181.22 25.1462 180.944 24.3212 180.944 23.3792C180.944 22.6532 181.145 22.0082 181.547 21.4442C181.949 20.8742 182.492 20.4272 183.176 20.1032C183.866 19.7792 184.646 19.6172 185.516 19.6172C186.734 19.6172 187.778 19.9862 188.648 20.7242L189.071 19.7792H189.665L189.836 23.7212H189.053C188.759 22.7072 188.327 21.9452 187.757 21.4352C187.193 20.9252 186.476 20.6702 185.606 20.6702C184.994 20.6702 184.517 20.8202 184.175 21.1202C183.833 21.4202 183.662 21.8342 183.662 22.3622C183.662 22.7702 183.815 23.1362 184.121 23.4602C184.427 23.7782 184.958 24.1292 185.714 24.5132L187.136 25.2422C188.264 25.8182 189.074 26.4512 189.566 27.1412C190.064 27.8312 190.313 28.6592 190.313 29.6252C190.313 30.3932 190.1 31.0832 189.674 31.6952C189.248 32.3072 188.669 32.7902 187.937 33.1442C187.205 33.4982 186.383 33.6752 185.471 33.6752ZM195.436 33.7022C194.513 33.7022 193.856 33.5012 193.465 33.0992C193.075 32.6972 192.88 32.0522 192.88 31.1642V24.9632H191.62L191.512 24.4142L195.103 21.6782L195.653 21.7682V24.0722H198.407L198.146 24.9632H195.653V30.9842C195.653 31.9382 196.025 32.4152 196.769 32.4152C196.979 32.4152 197.177 32.3792 197.363 32.3072C197.549 32.2352 197.72 32.1062 197.875 31.9202L198.289 32.4962C197.978 32.8922 197.573 33.1922 197.075 33.3962C196.577 33.6002 196.031 33.7022 195.436 33.7022ZM200.915 38.1482C200.333 38.1482 199.835 38.0192 199.421 37.7612C199.013 37.5032 198.809 37.1192 198.809 36.6092C198.809 36.2672 198.923 35.9942 199.151 35.7902C199.379 35.5862 199.649 35.4842 199.961 35.4842C200.225 35.4842 200.459 35.5592 200.663 35.7092C200.873 35.8592 201.023 36.0872 201.113 36.3932C201.197 36.6752 201.278 36.8582 201.356 36.9422C201.434 37.0322 201.554 37.0772 201.716 37.0772C201.926 37.0772 202.133 36.9722 202.337 36.7622C202.541 36.5522 202.709 36.2642 202.841 35.8982L203.543 34.0082L199.745 25.4132C199.643 25.1852 199.49 25.0202 199.286 24.9182C199.082 24.8102 198.758 24.7352 198.314 24.6932V24.0722H204.128V24.6932C203.75 24.7232 203.459 24.7712 203.255 24.8372C203.057 24.9032 202.934 24.9962 202.886 25.1162C202.838 25.2362 202.853 25.3922 202.931 25.5842L205.001 30.4622H205.091L206.882 26.1062C207.086 25.6442 207.086 25.3022 206.882 25.0802C206.684 24.8582 206.264 24.7292 205.622 24.6932V24.0722H209.906V24.6932C209.468 24.7772 209.132 24.8702 208.898 24.9722C208.664 25.0742 208.481 25.2152 208.349 25.3952C208.217 25.5692 208.085 25.8122 207.953 26.1242L203.849 36.0242C203.681 36.4142 203.501 36.7442 203.309 37.0142C203.117 37.2842 202.907 37.5062 202.679 37.6802C202.241 37.9922 201.653 38.1482 200.915 38.1482ZM209.706 33.5132V32.8832L211.236 32.5322V20.4902L209.706 20.0132V19.5812L213.603 18.7262H213.981V32.5322L215.412 32.8832V33.5132H209.706ZM216.178 33.5132V32.8832L217.699 32.5322V25.6562L216.178 25.1702V24.7472L220.084 23.8922H220.462V32.5322L221.884 32.8832V33.5132H216.178ZM219.049 22.5602C218.557 22.5602 218.179 22.4072 217.915 22.1012C217.651 21.7952 217.519 21.4622 217.519 21.1022C217.519 20.7122 217.654 20.3672 217.924 20.0672C218.2 19.7672 218.575 19.6172 219.049 19.6172C219.535 19.6172 219.919 19.7672 220.201 20.0672C220.489 20.3672 220.633 20.7122 220.633 21.1022C220.633 21.4622 220.498 21.7952 220.228 22.1012C219.964 22.4072 219.571 22.5602 219.049 22.5602ZM225.942 33.7022C225.486 33.7022 225.003 33.6662 224.493 33.5942C223.983 33.5282 223.545 33.4352 223.179 33.3152L223.062 30.4172H223.827C223.881 31.1912 224.082 31.7852 224.43 32.1992C224.784 32.6072 225.27 32.8112 225.888 32.8112C226.35 32.8112 226.719 32.6942 226.995 32.4602C227.271 32.2202 227.409 31.9082 227.409 31.5242C227.409 31.2242 227.301 30.9572 227.085 30.7232C226.875 30.4832 226.515 30.2282 226.005 29.9582L225.141 29.5172C224.433 29.1452 223.911 28.7312 223.575 28.2752C223.245 27.8192 223.08 27.2762 223.08 26.6462C223.08 25.7402 223.41 25.0562 224.07 24.5942C224.736 24.1262 225.714 23.8922 227.004 23.8922C227.46 23.8922 227.898 23.9222 228.318 23.9822C228.744 24.0362 229.086 24.1112 229.344 24.2072V26.6732H228.66C228.486 25.4132 227.892 24.7832 226.878 24.7832C226.47 24.7832 226.14 24.8822 225.888 25.0802C225.642 25.2782 225.519 25.5362 225.519 25.8542C225.519 26.1362 225.63 26.3912 225.852 26.6192C226.074 26.8412 226.458 27.0842 227.004 27.3482L227.859 27.7892C228.525 28.1312 229.017 28.5332 229.335 28.9952C229.653 29.4512 229.812 30.0032 229.812 30.6512C229.812 31.6112 229.473 32.3612 228.795 32.9012C228.117 33.4352 227.166 33.7022 225.942 33.7022ZM230.853 33.5132V32.8832L232.185 32.5322V20.5082L230.844 20.0132V19.5992L234.57 18.7262H234.957V32.5322L236.199 32.8832V33.5132H230.853ZM237.18 33.5132V32.8832L238.431 32.5322V27.6542C238.431 26.9222 238.284 26.3822 237.99 26.0342C237.696 25.6802 237.255 25.5032 236.667 25.5032C236.301 25.5032 235.959 25.5752 235.641 25.7192C235.323 25.8632 235.023 26.0612 234.741 26.3132V25.1882C235.203 24.8282 235.749 24.5222 236.379 24.2702C237.015 24.0182 237.666 23.8922 238.332 23.8922C240.24 23.8922 241.194 24.9362 241.194 27.0242V32.5322L242.535 32.8832V33.5132H237.18Z" fill="#4392F9"/>
</g>
<defs>
<linearGradient id="paint0_linear_2684_323" x1="170.281" y1="19.7563" x2="139.255" y2="19.7563" gradientUnits="userSpaceOnUse">
<stop stop-color="#CFE2FC"/>
<stop offset="1" stop-color="#4392F9"/>
</linearGradient>
<linearGradient id="paint1_linear_2684_323" x1="131.5" y1="35.2681" x2="162.525" y2="35.2681" gradientUnits="userSpaceOnUse">
<stop stop-color="#F8BCC6"/>
<stop offset="1" stop-color="#F83758"/>
</linearGradient>
<clipPath id="clip0_2684_323">
<rect width="111.781" height="31.0263" fill="white" transform="translate(131.5 12)"/>
</clipPath>
</defs>
</svg>
